<svg width="953" height="345" viewBox="0 0 953 345" fill="none" xmlns="http://www.w3.org/2000/svg" xmlnsXlink="http://www.w3.org/1999/xlink">
<rect x="212.082" y="184.131" width="207" height="211.609" rx="53" transform="rotate(104.262 212.082 184.131)" fill="url(#pattern0)"/>
<rect x="738" y="169.421" width="215.383" height="209.857" rx="52" transform="rotate(-75.3919 738 169.421)" fill="url(#pattern1)"/>
<path d="M74.5514 171.744C74.5514 161.952 76.7594 153.168 81.1754 145.392C85.5914 137.52 91.5914 131.376 99.1754 126.96C106.855 122.544 115.351 120.336 124.663 120.336C135.607 120.336 145.159 122.976 153.319 128.256C161.479 133.536 167.431 141.024 171.175 150.72H155.479C152.695 144.672 148.663 140.016 143.383 136.752C138.199 133.488 131.959 131.856 124.663 131.856C117.655 131.856 111.367 133.488 105.799 136.752C100.231 140.016 95.8634 144.672 92.6954 150.72C89.5274 156.672 87.9434 163.68 87.9434 171.744C87.9434 179.712 89.5274 186.72 92.6954 192.768C95.8634 198.72 100.231 203.328 105.799 206.592C111.367 209.856 117.655 211.488 124.663 211.488C131.959 211.488 138.199 209.904 143.383 206.736C148.663 203.472 152.695 198.816 155.479 192.768H171.175C167.431 202.368 161.479 209.808 153.319 215.088C145.159 220.272 135.607 222.864 124.663 222.864C115.351 222.864 106.855 220.704 99.1754 216.384C91.5914 211.968 85.5914 205.872 81.1754 198.096C76.7594 190.32 74.5514 181.536 74.5514 171.744Z" fill="white"/>
<path d="M203.786 155.904C206.09 151.392 209.354 147.888 213.578 145.392C217.898 142.896 223.13 141.648 229.274 141.648V155.184H225.818C211.13 155.184 203.786 163.152 203.786 179.088V222H190.682V143.088H203.786V155.904Z" fill="white"/>
<path d="M239.504 182.256C239.504 174.192 241.136 167.136 244.4 161.088C247.664 154.944 252.128 150.192 257.792 146.832C263.552 143.472 269.936 141.792 276.944 141.792C283.856 141.792 289.856 143.28 294.944 146.256C300.032 149.232 303.824 152.976 306.32 157.488V143.088H319.568V222H306.32V207.312C303.728 211.92 299.84 215.76 294.656 218.832C289.568 221.808 283.616 223.296 276.8 223.296C269.792 223.296 263.456 221.568 257.792 218.112C252.128 214.656 247.664 209.808 244.4 203.568C241.136 197.328 239.504 190.224 239.504 182.256ZM306.32 182.4C306.32 176.448 305.12 171.264 302.72 166.848C300.32 162.432 297.056 159.072 292.928 156.768C288.896 154.368 284.432 153.168 279.536 153.168C274.64 153.168 270.176 154.32 266.144 156.624C262.112 158.928 258.896 162.288 256.496 166.704C254.096 171.12 252.896 176.304 252.896 182.256C252.896 188.304 254.096 193.584 256.496 198.096C258.896 202.512 262.112 205.92 266.144 208.32C270.176 210.624 274.64 211.776 279.536 211.776C284.432 211.776 288.896 210.624 292.928 208.32C297.056 205.92 300.32 202.512 302.72 198.096C305.12 193.584 306.32 188.352 306.32 182.4Z" fill="white"/>
<path d="M373.825 153.888H357.265V222H344.161V153.888H333.937V143.088H344.161V137.472C344.161 128.64 346.417 122.208 350.929 118.176C355.537 114.048 362.881 111.984 372.961 111.984V122.928C367.201 122.928 363.121 124.08 360.721 126.384C358.417 128.592 357.265 132.288 357.265 137.472V143.088H373.825V153.888Z" fill="white"/>
<path d="M405.088 153.888V200.4C405.088 204.24 405.904 206.976 407.536 208.608C409.168 210.144 412 210.912 416.032 210.912H425.68V222H413.872C406.576 222 401.104 220.32 397.456 216.96C393.808 213.6 391.984 208.08 391.984 200.4V153.888H381.76V143.088H391.984V123.216H405.088V143.088H425.68V153.888H405.088Z" fill="white"/>
<path d="M509.525 143.088L462.005 259.152H448.469L464.021 221.136L432.197 143.088H446.741L471.509 207.024L495.989 143.088H509.525Z" fill="white"/>
<path d="M572.953 170.304C576.601 170.88 579.913 172.368 582.889 174.768C585.961 177.168 588.361 180.144 590.089 183.696C591.913 187.248 592.825 191.04 592.825 195.072C592.825 200.16 591.529 204.768 588.937 208.896C586.345 212.928 582.553 216.144 577.561 218.544C572.665 220.848 566.857 222 560.137 222H522.697V121.632H558.697C565.513 121.632 571.321 122.784 576.121 125.088C580.921 127.296 584.521 130.32 586.921 134.16C589.321 138 590.521 142.32 590.521 147.12C590.521 153.072 588.889 158.016 585.625 161.952C582.457 165.792 578.233 168.576 572.953 170.304ZM535.801 164.976H557.833C563.977 164.976 568.729 163.536 572.089 160.656C575.449 157.776 577.129 153.792 577.129 148.704C577.129 143.616 575.449 139.632 572.089 136.752C568.729 133.872 563.881 132.432 557.545 132.432H535.801V164.976ZM558.985 211.2C565.513 211.2 570.601 209.664 574.249 206.592C577.897 203.52 579.721 199.248 579.721 193.776C579.721 188.208 577.801 183.84 573.961 180.672C570.121 177.408 564.985 175.776 558.553 175.776H535.801V211.2H558.985Z" fill="white"/>
<path d="M683.01 179.52C683.01 182.016 682.866 184.656 682.578 187.44H619.506C619.986 195.216 622.626 201.312 627.426 205.728C632.322 210.048 638.226 212.208 645.138 212.208C650.802 212.208 655.506 210.912 659.25 208.32C663.09 205.632 665.778 202.08 667.314 197.664H681.426C679.314 205.248 675.09 211.44 668.754 216.24C662.418 220.944 654.546 223.296 645.138 223.296C637.65 223.296 630.93 221.616 624.978 218.256C619.122 214.896 614.514 210.144 611.154 204C607.794 197.76 606.114 190.56 606.114 182.4C606.114 174.24 607.746 167.088 611.01 160.944C614.274 154.8 618.834 150.096 624.69 146.832C630.642 143.472 637.458 141.792 645.138 141.792C652.626 141.792 659.25 143.424 665.01 146.688C670.77 149.952 675.186 154.464 678.258 160.224C681.426 165.888 683.01 172.32 683.01 179.52ZM669.474 176.784C669.474 171.792 668.37 167.52 666.162 163.968C663.954 160.32 660.93 157.584 657.09 155.76C653.346 153.84 649.17 152.88 644.562 152.88C637.938 152.88 632.274 154.992 627.57 159.216C622.962 163.44 620.322 169.296 619.65 176.784H669.474Z" fill="white"/>
<path d="M695.411 182.256C695.411 174.192 697.043 167.136 700.307 161.088C703.571 154.944 708.035 150.192 713.699 146.832C719.459 143.472 725.843 141.792 732.851 141.792C739.763 141.792 745.763 143.28 750.851 146.256C755.939 149.232 759.731 152.976 762.227 157.488V143.088H775.475V222H762.227V207.312C759.635 211.92 755.747 215.76 750.563 218.832C745.475 221.808 739.523 223.296 732.707 223.296C725.699 223.296 719.363 221.568 713.699 218.112C708.035 214.656 703.571 209.808 700.307 203.568C697.043 197.328 695.411 190.224 695.411 182.256ZM762.227 182.4C762.227 176.448 761.027 171.264 758.627 166.848C756.227 162.432 752.963 159.072 748.835 156.768C744.803 154.368 740.339 153.168 735.443 153.168C730.547 153.168 726.083 154.32 722.051 156.624C718.019 158.928 714.803 162.288 712.403 166.704C710.003 171.12 708.803 176.304 708.803 182.256C708.803 188.304 710.003 193.584 712.403 198.096C714.803 202.512 718.019 205.92 722.051 208.32C726.083 210.624 730.547 211.776 735.443 211.776C740.339 211.776 744.803 210.624 748.835 208.32C752.963 205.92 756.227 202.512 758.627 198.096C761.027 193.584 762.227 188.352 762.227 182.4Z" fill="white"/>
<path d="M836.067 141.648C845.667 141.648 853.443 144.576 859.395 150.432C865.347 156.192 868.323 164.544 868.323 175.488V222H855.363V177.36C855.363 169.488 853.395 163.488 849.459 159.36C845.523 155.136 840.147 153.024 833.331 153.024C826.419 153.024 820.899 155.184 816.771 159.504C812.739 163.824 810.723 170.112 810.723 178.368V222H797.619V143.088H810.723V154.32C813.315 150.288 816.819 147.168 821.235 144.96C825.747 142.752 830.691 141.648 836.067 141.648Z" fill="white"/>
<defs>
<pattern id="pattern0" patternContentUnits="objectBoundingBox" width="1" height="1">
<use xlinkHref="#image0" transform="scale(0.00202429)"/>
</pattern>
<pattern id="pattern1" patternContentUnits="objectBoundingBox" width="1" height="1">
<use xlinkHref="#image0" transform="translate(0 -0.0245932) scale(0.00202429)"/>
</pattern>

</defs>
</svg>
